<svg xmlns="http://www.w3.org/2000/svg" width="36.678" height="62.878" viewBox="0 0 36.678 62.878">
  <g id="Group_36" data-name="Group 36" transform="translate(-1782.528 -2758.663)">
    <g id="Group_35" data-name="Group 35">
      <path id="Path_33" data-name="Path 33" d="M1784.985,2786.206l14.977,29.107a1.027,1.027,0,0,0,1.826,0l14.978-29.107a23.507,23.507,0,0,0,1.76-4.507,18.122,18.122,0,0,0-8.218-20.622,19.567,19.567,0,0,0-19.592.441,18.042,18.042,0,0,0-7.6,19.77A23.511,23.511,0,0,0,1784.985,2786.206Zm6.837-22.959a17.519,17.519,0,0,1,17.463-.39,16.073,16.073,0,0,1,7.262,18.3,21.5,21.5,0,0,1-1.607,4.113l-14.065,27.333-14.064-27.333a21.433,21.433,0,0,1-1.707-4.487A15.994,15.994,0,0,1,1791.822,2763.247Z"/>
      <path id="Path_34" data-name="Path 34" d="M1800.868,2786.957a10.14,10.14,0,1,0-10.139-10.139A10.152,10.152,0,0,0,1800.868,2786.957Zm0-18.225a8.086,8.086,0,1,1-8.085,8.086A8.095,8.095,0,0,1,1800.868,2768.732Z"/>
      <path id="Path_35" data-name="Path 35" d="M1808.746,2806.6a1.027,1.027,0,0,0-.394,2.016c5.18,1.011,8.8,3.1,8.8,5.093,0,2.613-6.132,5.555-15.261,5.769-.319.007-.652.011-1.02.011s-.689,0-1.005-.012c-9.138-.21-15.277-3.152-15.277-5.768,0-1.991,3.624-4.087,8.814-5.1a1.027,1.027,0,0,0-.393-2.015c-6.559,1.276-10.475,3.935-10.475,7.112,0,2.19,1.907,4.188,5.368,5.626a34.167,34.167,0,0,0,11.914,2.2c.331.009.676.013,1.054.013s.735,0,1.07-.013a34.141,34.141,0,0,0,11.9-2.2c3.457-1.439,5.361-3.436,5.361-5.624C1819.2,2810.534,1815.294,2807.877,1808.746,2806.6Z"/>
    </g>
  </g>
</svg>
