<svg xmlns="http://www.w3.org/2000/svg" width="69.123" height="40.322" viewBox="0 0 69.123 40.322">
  <g id="Group_41" data-name="Group 41" transform="translate(-1763.739 -4301.307)">
    <g id="Group_40" data-name="Group 40">
      <path id="Path_37" data-name="Path 37" d="M1819.037,4324.348a8.64,8.64,0,1,0-8.64-8.64A8.64,8.64,0,0,0,1819.037,4324.348Zm0-14.2a5.555,5.555,0,1,1-5.555,5.555A5.561,5.561,0,0,1,1819.037,4310.153Z"/>
      <path id="Path_38" data-name="Path 38" d="M1812.627,4327.461a20.441,20.441,0,0,1,1.932,2.265,10.934,10.934,0,0,1,15.25,11.9h2.917a13.968,13.968,0,0,0,.136-1.92,13.823,13.823,0,0,0-20.235-12.248Z"/>
      <path id="Path_39" data-name="Path 39" d="M1812.7,4341.629h2.88a17.281,17.281,0,0,0-34.562,0h2.881a14.4,14.4,0,1,1,28.8,0Z"/>
      <path id="Path_40" data-name="Path 40" d="M1798.3,4321.468a10.08,10.08,0,1,0-10.08-10.08A10.081,10.081,0,0,0,1798.3,4321.468Zm0-17.46a7.38,7.38,0,1,1-7.38,7.38A7.388,7.388,0,0,1,1798.3,4304.008Z"/>
      <path id="Path_41" data-name="Path 41" d="M1766.791,4341.629a10.938,10.938,0,0,1,15.25-11.9,20.441,20.441,0,0,1,1.932-2.265,13.822,13.822,0,0,0-20.234,12.248,13.968,13.968,0,0,0,.135,1.92Z"/>
      <path id="Path_42" data-name="Path 42" d="M1777.563,4324.348a8.64,8.64,0,1,0-8.64-8.64A8.641,8.641,0,0,0,1777.563,4324.348Zm0-14.2a5.555,5.555,0,1,1-5.554,5.555A5.562,5.562,0,0,1,1777.563,4310.153Z"/>
    </g>
  </g>
</svg>
