<svg xmlns="http://www.w3.org/2000/svg" width="234.429" height="105.29" viewBox="0 0 234.429 105.29">
  <g id="Group_14" data-name="Group 14" transform="translate(-37.285 -51.355)">
    <g id="Group_10" data-name="Group 10">
      <g id="Group_1" data-name="Group 1">
        <path id="Path_1" data-name="Path 1" d="M70.355,101.568a18.536,18.536,0,0,1-7.246-2.7,3.617,3.617,0,0,1-.2.581l.041,0c-.247.672-.371,1.12-.371,1.12-1.237,5.148-3.71,17.571-2.967,36.708.742,19.026,6.923,18.242,8.407,18.019s1.36-2.574,1.36-2.574c-1.36-12.087.866-45.326.989-50.922C70.37,101.718,70.357,101.649,70.355,101.568Z" fill="#1c1c1a"/>
        <path id="Path_2" data-name="Path 2" d="M102.882,139.377c-.247,2.215-3.213,14.131-10.138,14.975-14.96,1.687-12.982-16.03-12.982-16.03s.371-11.6,3.957-12.022c2.966-.316,4.451.634,4.574,5.8,0,1.687-.247,4.113-.371,6.855,0,0-.866,10.966,2.844,11.705,4.7.949,10.138-12.971,10.138-12.971a.963.963,0,0,1,1.607.1A2.6,2.6,0,0,1,102.882,139.377Z" fill="#1c1c1a"/>
        <path id="Path_3" data-name="Path 3" d="M78.1,120.453c0-2.132,2.918-4.264,7.086-4.264s7.5,2.132,7.5,4.264c0,2.488-3.33,4.266-7.5,4.266S78.1,122.941,78.1,120.453Z" fill="#1c1c1a"/>
        <path id="Path_4" data-name="Path 4" d="M151.346,137.795a2.219,2.219,0,0,1-.249,1.687c-.866,2.11-8.654,11.5-15.206,11.6-2.227,0-7.172.21-5.813-11.178,0,0,.99-5.168-1.359-4.219-1.36.528-3.214,7.066-4.7,11.811a4.24,4.24,0,0,1-4.08,2.848c-4.081-.106-6.8-4.219-5.44-15.608,0,0,.988-5.167-1.361-4.218-1.854.633-4.945,15.186-5.934,19.72-.125,4.429-3.586,3.269-3.586,3.269-5.44-1.265-3.586-20.353-3.586-20.353s.619-10.229,4.576-10.44c3.708-.106,3.461,4.746,3.461,4.746,0,2.531-.124,4.956-.124,6.643,1.978-5.589,5.069-10.44,9.274-10.334,6.923.21,5.193,10.44,5.193,10.44L121.3,145.705a40.99,40.99,0,0,1,2.349-7.8c1.979-4.535,4.945-9.069,9.272-8.964,7.047.211,5.069,10.44,5.069,10.44l-.741,6.328s-.247,1.37.99,1.054c1.483-.422,3.585-1.581,11.621-9.385A.92.92,0,0,1,151.346,137.795Z" fill="#1c1c1a"/>
        <path id="Path_5" data-name="Path 5" d="M176.067,137.374c-8.037,7.909-12.859,10.756-16.691,10.967,0,0-3.586-.422-3.71-7.593,6.676.211,11.978-5.7,12.859-9.7,1.072-4.87-6.183-6.222-6.183-6.222-7.789-1.581-16.567,6.117-15.826,16.768.866,10.335,12.984,10.124,12.984,10.124,10.384-.317,17.185-10.23,17.926-12.339a4.561,4.561,0,0,0,.249-1.582A1,1,0,0,0,176.067,137.374Zm-17.31-7.91a3.878,3.878,0,0,1,2.553-1.791c2.251-.109,2.819,2.441,2.2,3.78a10.729,10.729,0,0,1-7.6,5.709A17.7,17.7,0,0,1,158.757,129.464Z" fill="#1c1c1a"/>
        <path id="Path_6" data-name="Path 6" d="M204.252,138.322a6.476,6.476,0,0,0-1.731-.632c-3.957-1.055-8.779.421-12.487,1.582a6.866,6.866,0,0,0-1.608.527c-2.719-2.637-6.183-4.218-7.171-5.379-1.607-2-.246-6.221,2.225-6.115,1.978,0,3.215,3.057,4.822,3.163a2.128,2.128,0,0,0,2.1-1.476c.988-5.8-8.284-5.062-8.284-5.062-8.779.949-10.51,5.483-10.386,9.174,0,0-.371,3.691,4.327,6.012a37.053,37.053,0,0,1,5.317,2.847c-6.676,4.112-7.048,8.647-7.048,8.647-.494,4.113,4.451,4.851,4.451,4.851,7.047,1.16,13.23-3.269,12.982-10.124a6.9,6.9,0,0,0-.989-3.585c1.608-.739,2.844-1.16,2.844-1.16a30.933,30.933,0,0,1,10.262-2C204.623,139.482,204.747,138.85,204.252,138.322Zm-19.906,10.652s-.988,5.589-5.069,4.85c-2.1-.421-.247-2.952-.247-2.952a16.9,16.9,0,0,1,5.192-4.64A6.537,6.537,0,0,1,184.346,148.974Z" fill="#1c1c1a"/>
      </g>
      <g id="Group_2" data-name="Group 2">
        <path id="Path_7" data-name="Path 7" d="M122.036,60.49c-4.2-5.39-9.384-8.122-15.4-8.122-6.035,0-11.225,2.732-15.427,8.122a30.22,30.22,0,0,0-6.2,19.067,30.261,30.261,0,0,0,6.2,19.1c4.216,5.409,9.407,8.152,15.427,8.152,6,0,11.188-2.743,15.4-8.152a30.259,30.259,0,0,0,6.173-19.1A30.212,30.212,0,0,0,122.036,60.49Z" fill="#1c1c1a"/>
        <path id="Path_8" data-name="Path 8" d="M94.951,94.543A23.63,23.63,0,0,1,90.109,79.56,23.606,23.606,0,0,1,94.951,64.6c3.227-4.141,7.119-6.185,11.678-6.185,4.538,0,8.431,2.044,11.659,6.185a23.6,23.6,0,0,1,4.82,14.956,23.621,23.621,0,0,1-4.82,14.983q-4.842,6.211-11.659,6.211Q99.791,100.754,94.951,94.543Z" fill="#ffd242"/>
        <path id="Path_9" data-name="Path 9" d="M106.177,95.856a10.773,10.773,0,0,1,0-14.081,8.31,8.31,0,0,1,12.629,0,10.8,10.8,0,0,1,0,14.081,8.286,8.286,0,0,1-12.629,0Z" fill="#1c1c1a"/>
      </g>
      <g id="Group_4" data-name="Group 4">
        <g id="Group_3" data-name="Group 3">
          <path id="Path_10" data-name="Path 10" d="M161.326,60.49c-4.2-5.39-9.383-8.122-15.4-8.122S134.7,55.1,130.495,60.49A30.219,30.219,0,0,0,124.3,79.557a30.26,30.26,0,0,0,6.195,19.1c4.217,5.409,9.407,8.152,15.427,8.152s11.188-2.743,15.4-8.152a30.259,30.259,0,0,0,6.173-19.1A30.212,30.212,0,0,0,161.326,60.49Zm-3.748,34.053q-4.841,6.211-11.658,6.211-6.839,0-11.679-6.211A23.635,23.635,0,0,1,129.4,79.56,23.612,23.612,0,0,1,134.241,64.6c3.227-4.141,7.12-6.185,11.679-6.185,4.538,0,8.431,2.044,11.658,6.185A23.6,23.6,0,0,1,162.4,79.56,23.622,23.622,0,0,1,157.578,94.543Z" fill="#1c1c1a"/>
          <path id="Path_11" data-name="Path 11" d="M157.578,64.6c-3.227-4.141-7.12-6.185-11.658-6.185-4.559,0-8.452,2.044-11.679,6.185A23.612,23.612,0,0,0,129.4,79.56a23.635,23.635,0,0,0,4.841,14.983q4.841,6.211,11.679,6.211,6.807,0,11.658-6.211A23.622,23.622,0,0,0,162.4,79.56,23.6,23.6,0,0,0,157.578,64.6Z" fill="#ffd242"/>
        </g>
        <path id="Path_12" data-name="Path 12" d="M133.341,95.856a10.773,10.773,0,0,1,0-14.081,8.31,8.31,0,0,1,12.629,0,10.807,10.807,0,0,1,0,14.081,8.286,8.286,0,0,1-12.629,0Z" fill="#1c1c1a"/>
      </g>
      <g id="Group_8" data-name="Group 8">
        <g id="Group_5" data-name="Group 5">
          <path id="Path_13" data-name="Path 13" d="M37.285,79.272a89.2,89.2,0,0,0,22.1,15.567,117.062,117.062,0,0,0,12.47,5.563c4.27,1.607,8.6,3.075,13.03,4.256a167.829,167.829,0,0,0,27.079,4.926,196.777,196.777,0,0,0,27.543.91,217.911,217.911,0,0,0,53.929-8.892c8.69-2.6,17.294-5.71,26.05-8.4a91.425,91.425,0,0,1,13.439-3.217,40.961,40.961,0,0,1,6.934-.383,30.2,30.2,0,0,1,6.8,1.041,36.864,36.864,0,0,0-13.369,1.2,99.328,99.328,0,0,0-12.654,4.513c-4.187,1.694-8.361,3.476-12.574,5.253s-8.507,3.453-12.883,5.04a184.164,184.164,0,0,1-55.385,10.67,172.989,172.989,0,0,1-28.6-1.331,149.181,149.181,0,0,1-27.928-6.266A115.2,115.2,0,0,1,57.634,97.7C49.79,92.645,42.574,86.587,37.285,79.272Z" fill="#1c1c1a"/>
        </g>
        <g id="Group_6" data-name="Group 6">
          <path id="Path_14" data-name="Path 14" d="M159.136,117.236a207.005,207.005,0,0,0,24.808-4.892c4.03-1.1,8.042-2.22,11.977-3.555,3.945-1.292,7.872-2.654,11.681-4.195,3.855-1.474,7.664-3.123,11.535-4.7,3.892-1.518,7.8-3.087,11.859-4.271a63.438,63.438,0,0,1,12.439-2.556,42.162,42.162,0,0,1,12.581.657c-8.428.072-16.3,2.147-23.872,5.118-3.776,1.516-7.546,3.113-11.3,4.842q-5.714,2.554-11.537,4.95c-3.976,1.516-7.986,2.893-12.08,4.082-4.106,1.141-8.254,2.2-12.48,2.936A99.656,99.656,0,0,1,159.136,117.236Z" fill="#1c1c1a"/>
        </g>
        <g id="Group_7" data-name="Group 7">
          <path id="Path_15" data-name="Path 15" d="M240.347,114.579a18.872,18.872,0,0,0,14.791,4.823,15.825,15.825,0,0,0,7.265-2.731,13,13,0,0,0,4.684-5.459,7.974,7.974,0,0,0,0-6.265,8.456,8.456,0,0,0-4.456-4.361,14.84,14.84,0,0,0-6.843-.9,25.559,25.559,0,0,0-3.687.57c-1.211.258-2.473.669-3.764,1.043-5.129,1.479-10.183,3.314-15.269,5.207-5.109,1.828-10.211,3.837-15.487,5.5-2.628.847-5.29,1.666-7.978,2.358-2.667.649-5.381,1.391-8.135,1.887a72.127,72.127,0,0,1-8.322,1.066,36.751,36.751,0,0,1-8.334-.291,45.944,45.944,0,0,0,8.178-.908c2.684-.523,5.341-1.16,7.949-1.944,2.624-.73,5.16-1.649,7.77-2.534,2.569-.911,5.119-1.816,7.645-2.826,5.045-2.015,10.08-4.082,15.149-6.154,5.083-2.028,10.256-3.941,15.569-5.552a37.815,37.815,0,0,1,8.5-1.7,18.68,18.68,0,0,1,9.067,1.43,12.43,12.43,0,0,1,6.306,6.616,11,11,0,0,1,.75,4.5,11.511,11.511,0,0,1-1.2,4.461c-2.818,5.577-9.159,8.994-15.306,9.139A18.116,18.116,0,0,1,240.347,114.579Z" fill="#1c1c1a"/>
        </g>
      </g>
      <g id="Group_9" data-name="Group 9">
        <path id="Path_16" data-name="Path 16" d="M214.462,52.049,197.446,94.661,179.479,69.778l15.813-15.813H185.01l-10.5,10.5v-10.5H167.23l.054,51.26q3.642-.615,7.276-1.364l-.046-28.353L191.6,99.459l2.082-.39c3.815-1.153,7.67-2.416,11.447-3.669l3.145-8.119h12.491l1.06,2.79c2.3-.66,4.718-1.308,7.2-1.824Zm-4.789,28.4L214.5,68.3l4.87,12.142Z" fill="#1c1c1a"/>
        <path id="Path_17" data-name="Path 17" d="M60.617,92.647q2.936,1.52,5.957,2.87V83.7H79.288v16.686c2.232.735,4.359,1.375,6.4,1.919.285.076.57.144.855.218V53.965H79.288V76.4H66.574V53.965H59.3V91.946C59.739,92.179,60.17,92.419,60.617,92.647Z" fill="#1c1c1a"/>
      </g>
    </g>
    <g id="Group_13" data-name="Group 13">
      <g id="Group_11" data-name="Group 11">
        <path id="Path_18" data-name="Path 18" d="M228.636,55.833a4.6,4.6,0,1,1-4.588-4.478A4.5,4.5,0,0,1,228.636,55.833Zm-8.055,0a3.469,3.469,0,0,0,3.5,3.577,3.429,3.429,0,0,0,3.413-3.55,3.457,3.457,0,1,0-6.908-.027Zm2.757,2.348H222.3V53.7a9.05,9.05,0,0,1,1.72-.137,2.792,2.792,0,0,1,1.557.328,1.243,1.243,0,0,1,.436.983,1.147,1.147,0,0,1-.928,1.038v.054a1.321,1.321,0,0,1,.819,1.092,3.439,3.439,0,0,0,.328,1.12h-1.12a3.865,3.865,0,0,1-.355-1.092c-.082-.492-.355-.71-.928-.71h-.492Zm.028-2.539h.491c.574,0,1.038-.192,1.038-.656,0-.409-.3-.682-.956-.682a2.506,2.506,0,0,0-.573.054Z" fill="#1c1c1a"/>
      </g>
      <g id="Group_12" data-name="Group 12">
        <path id="Path_19" data-name="Path 19" d="M228.636,55.833a4.6,4.6,0,1,1-4.588-4.478A4.5,4.5,0,0,1,228.636,55.833Zm-8.055,0a3.469,3.469,0,0,0,3.5,3.577,3.429,3.429,0,0,0,3.413-3.55,3.457,3.457,0,1,0-6.908-.027Zm2.757,2.348H222.3V53.7a9.05,9.05,0,0,1,1.72-.137,2.792,2.792,0,0,1,1.557.328,1.243,1.243,0,0,1,.436.983,1.147,1.147,0,0,1-.928,1.038v.054a1.321,1.321,0,0,1,.819,1.092,3.439,3.439,0,0,0,.328,1.12h-1.12a3.865,3.865,0,0,1-.355-1.092c-.082-.492-.355-.71-.928-.71h-.492Zm.028-2.539h.491c.574,0,1.038-.192,1.038-.656,0-.409-.3-.682-.956-.682a2.506,2.506,0,0,0-.573.054Z" fill="#1c1c1a"/>
      </g>
    </g>
  </g>
</svg>
