<svg xmlns="http://www.w3.org/2000/svg" width="48.187" height="53.793" viewBox="0 0 48.187 53.793">
  <g id="Group_1" data-name="Group 1" transform="translate(-23.637 -36.013)">
    <path id="Path_1" data-name="Path 1" d="M67.007,89.806H28.454a4.822,4.822,0,0,1-4.817-4.816V76.618A12.174,12.174,0,0,1,35.8,64.458H59.664a12.174,12.174,0,0,1,12.16,12.16V84.99A4.822,4.822,0,0,1,67.007,89.806ZM35.8,66.748a9.882,9.882,0,0,0-9.87,9.87V84.99a2.529,2.529,0,0,0,2.527,2.527H67.007a2.529,2.529,0,0,0,2.527-2.527V76.618a9.882,9.882,0,0,0-9.87-9.87Z" fill="#040505"/>
    <path id="Path_2" data-name="Path 2" d="M47.731,62.169A13.078,13.078,0,1,1,60.808,49.091,13.092,13.092,0,0,1,47.731,62.169Zm0-23.866A10.788,10.788,0,1,0,58.519,49.091,10.8,10.8,0,0,0,47.731,38.3Z" fill="#040505"/>
  </g>
</svg>
